HIERARCHY
ROOT Hips
{
    OFFSET 0.000000 0.000000 0.000000
    CHANNELS 6 Xposition Yposition Zposition Zrotation Xrotation Yrotation
    JOINT Spine
    {
        OFFSET -0.000000 7.236184 0.000000
        CHANNELS 3 Zrotation Xrotation Yrotation
        JOINT Spine1
        {
            OFFSET -0.000000 20.420147 0.000000
            CHANNELS 3 Zrotation Xrotation Yrotation
            JOINT Neck
            {
                OFFSET -0.000000 20.336288 1.848754
                CHANNELS 3 Zrotation Xrotation Yrotation
                JOINT Head
                {
                    OFFSET -0.000000 12.354461 -1.764923
                    CHANNELS 3 Zrotation Xrotation Yrotation
                    End Site
                    {
                        OFFSET -0.000000 22.061537 0.000000
                    }
                }
            }
            JOINT LeftShoulder
            {
                OFFSET 3.573296 18.396038 -0.314103
                CHANNELS 3 Zrotation Xrotation Yrotation
                JOINT LeftArm
                {
                    OFFSET 10.880760 0.000000 0.000000
                    CHANNELS 3 Zrotation Xrotation Yrotation
                    JOINT LeftForeArm
                    {
                        OFFSET 27.185530 0.000000 0.000000
                        CHANNELS 3 Zrotation Xrotation Yrotation
                        JOINT LeftHand
                        {
                            OFFSET 27.825975 0.000000 0.000000
                            CHANNELS 3 Zrotation Xrotation Yrotation
                            End Site
                            {
                                OFFSET 13.236923 0.000000 0.000000
                            }
                        }
                    }
                }
            }
            JOINT RightShoulder
            {
                OFFSET -3.474926 18.396038 -0.314103
                CHANNELS 3 Zrotation Xrotation Yrotation
                JOINT RightArm
                {
                    OFFSET -10.880760 0.000000 0.000000
                    CHANNELS 3 Zrotation Xrotation Yrotation
                    JOINT RightForeArm
                    {
                        OFFSET -27.185530 0.000000 0.000000
                        CHANNELS 3 Zrotation Xrotation Yrotation
                        JOINT RightHand
                        {
                            OFFSET -27.825975 0.000000 0.000000
                            CHANNELS 3 Zrotation Xrotation Yrotation
                            End Site
                            {
                                OFFSET -13.236923 0.000000 0.000000
                            }
                        }
                    }
                }
            }
        }
    }
    JOINT LeftUpLeg
    {
        OFFSET 8.824615 0.000000 0.000000
        CHANNELS 3 Zrotation Xrotation Yrotation
        JOINT LeftLeg
        {
            OFFSET -0.000000 -35.111282 0.000000
            CHANNELS 3 Zrotation Xrotation Yrotation
            JOINT LeftFoot
            {
                OFFSET -0.000000 -42.324711 0.000000
                CHANNELS 3 Zrotation Xrotation Yrotation
                JOINT LeftToeBase
                {
                    OFFSET -0.000000 -5.735999 13.236923
                    CHANNELS 3 Zrotation Xrotation Yrotation
                    End Site
                    {
                        OFFSET -0.000000 0.000000 3.529846
                    }
                }
            }
        }
    }
    JOINT RightUpLeg
    {
        OFFSET -8.824615 0.000000 0.000000
        CHANNELS 3 Zrotation Xrotation Yrotation
        JOINT RightLeg
        {
            OFFSET -0.000000 -35.111282 0.000000
            CHANNELS 3 Zrotation Xrotation Yrotation
            JOINT RightFoot
            {
                OFFSET -0.000000 -42.324711 0.000000
                CHANNELS 3 Zrotation Xrotation Yrotation
                JOINT RightToeBase
                {
                    OFFSET -0.000000 -5.735999 13.236923
                    CHANNELS 3 Zrotation Xrotation Yrotation
                    End Site
                    {
                        OFFSET -0.000000 0.000000 3.529846
                    }
                }
            }
        }
    }
}
MOTION
Frames:    8
Frame Time:    0.008333
-1.750586    80.792892    93.788651    -0.238583    -4.611572    -177.298401    -1.830792    -14.922557    0.468466    -0.707135    6.254416    0.746826    0.928463    6.218552    -7.751185    10.777754    2.327748    -6.840290    0.670920    17.963741    -3.069401    -44.030102    47.237526    -39.698967    -3.227184    -4.278280    -17.335846    16.597769    -4.395502    2.567388    6.509025    19.604025    -3.728966    37.549423    47.651882    42.809696    1.056109    -4.906862    16.800098    -15.561698    -4.526534    -3.932585    3.436198    -1.275867    0.173915    -2.858829    7.178739    0.822751    -0.407460    -9.190761    -7.296549    0.050504    0.021589    -0.055979    -3.476045    -1.417603    2.231470    3.013558    8.973394    6.116374    -2.566539    -10.027202    -12.998522    -0.443767    0.131165    0.479882    
-1.790588    80.791046    93.781837    -0.228928    -4.602299    -177.330704    -1.823582    -14.921070    0.465488    -0.722325    6.244525    0.743715    0.991182    6.225393    -7.747831    10.687757    2.275471    -6.848748    0.692794    17.963091    -3.067626    -43.989243    47.232109    -39.776760    -3.202513    -4.191790    -17.348757    16.497326    -4.307748    2.568761    6.516107    19.612106    -3.719954    37.554710    47.646759    42.801258    1.067305    -4.912856    16.794949    -15.549101    -4.534372    -3.934206    3.418987    -1.270446    0.261624    -2.852190    7.213264    0.746205    -0.377727    -9.218151    -7.272041    0.056125    0.028171    -0.062209    -3.492613    -1.405132    2.300233    3.014768    8.962466    6.075025    -2.540265    -10.022625    -12.995403    -0.448131    0.133475    0.484599    
-1.830410    80.789253    93.775215    -0.219665    -4.593495    -177.362610    -1.816354    -14.919737    0.462623    -0.738170    6.234492    0.740731    1.049026    6.234569    -7.745817    10.607226    2.219869    -6.856746    0.715193    17.963297    -3.066023    -43.947559    47.227329    -39.855419    -3.177294    -4.104504    -17.361488    16.397505    -4.219104    2.569897    6.523370    19.620306    -3.710962    37.559330    47.641899    42.793411    1.078218    -4.918919    16.790117    -15.536807    -4.542164    -3.936124    3.401364    -1.265473    0.347841    -2.845470    7.247243    0.670913    -0.348317    -9.245047    -7.247773    0.061534    0.034664    -0.068204    -3.509719    -1.393465    2.365919    3.015838    8.952141    6.036942    -2.515677    -10.018003    -12.993135    -0.452576    0.136217    0.489404    
-1.869821    80.787582    93.768845    -0.210802    -4.584942    -177.393799    -1.808922    -14.918307    0.459908    -0.754747    6.224613    0.737906    1.109521    6.243408    -7.743948    10.520986    2.161540    -6.865664    0.737743    17.964472    -3.064749    -43.904320    47.224213    -39.934837    -3.151139    -4.016105    -17.374199    16.299301    -4.129235    2.570516    6.530759    19.628361    -3.701659    37.563168    47.637657    42.786087    1.088179    -4.925049    16.785694    -15.524752    -4.549851    -3.938261    3.383435    -1.260520    0.430625    -2.838755    7.279918    0.598895    -0.319480    -9.270947    -7.224257    0.066763    0.041023    -0.073999    -3.527202    -1.382496    2.426090    3.016383    8.942551    6.004125    -2.494371    -10.013086    -12.991811    -0.457152    0.139832    0.494351    
-1.909084    80.786064    93.762794    -0.202318    -4.576977    -177.424240    -1.801323    -14.917083    0.457402    -0.771932    6.215046    0.735254    1.173042    6.251422    -7.742519    10.427540    2.099262    -6.875951    0.760484    17.966593    -3.063872    -43.858635    47.223583    -40.015961    -3.123434    -3.925674    -17.387043    16.202419    -4.037186    2.570438    6.538222    19.636366    -3.692523    37.565392    47.633984    42.780201    1.097280    -4.931086    16.781820    -15.513025    -4.557257    -3.940745    3.365062    -1.255780    0.508686    -2.832296    7.310944    0.531464    -0.291031    -9.295668    -7.201474    0.071748    0.046911    -0.079523    -3.545330    -1.372700    2.479622    3.016228    8.933765    5.977861    -2.468644    -10.008635    -12.990191    -0.461384    0.142678    0.498925    
-1.948280    80.784698    93.757034    -0.194220    -4.569304    -177.453934    -1.793896    -14.915979    0.455139    -0.788668    6.206405    0.732749    1.239560    6.258622    -7.741621    10.325051    2.031125    -6.887766    0.781889    17.968657    -3.064069    -43.810574    47.226254    -40.097225    -3.093730    -3.833255    -17.400135    16.106987    -3.942979    2.568948    6.545005    19.643524    -3.683352    37.567173    47.630886    42.774796    1.105219    -4.936697    16.778330    -15.501769    -4.564035    -3.943376    3.346204    -1.250621    0.580287    -2.826424    7.339488    0.470416    -0.262831    -9.318803    -7.179494    0.076585    0.052618    -0.084884    -3.564192    -1.363614    2.526364    3.015298    8.925441    5.958614    -2.444320    -10.003743    -12.989643    -0.465709    0.146052    0.503600    
-1.987546    80.783501    93.751564    -0.186296    -4.561907    -177.482941    -1.786576    -14.915067    0.452986    -0.804562    6.199123    0.730520    1.308733    6.264536    -7.741435    10.213182    1.956228    -6.901305    0.801422    17.970211    -3.065135    -43.759659    47.233036    -40.178635    -3.061533    -3.738983    -17.413477    16.012142    -3.846859    2.565379    6.551202    19.649858    -3.674700    37.567390    47.628399    42.770893    1.111890    -4.941839    16.775309    -15.491152    -4.570111    -3.946188    3.327019    -1.244738    0.644066    -2.821380    7.364995    0.417521    -0.234904    -9.340117    -7.158640    0.081316    0.057982    -0.090126    -3.583633    -1.355049    2.566586    3.013405    8.916998    5.946068    -2.419580    -9.998219    -12.989719    -0.470047    0.149579    0.508287    
-2.026758    80.782471    93.746475    -0.178577    -4.554987    -177.511139    -1.779784    -14.914486    0.451101    -0.818609    6.193355    0.728489    1.379357    6.269676    -7.742200    10.092911    1.873354    -6.916453    0.818021    17.971064    -3.067193    -43.705914    47.244259    -40.259357    -3.026744    -3.643871    -17.426987    15.917903    -3.749780    2.559296    6.556206    19.655045    -3.666857    37.566528    47.626408    42.768387    1.117386    -4.946157    16.772522    -15.481716    -4.575213    -3.948669    3.307580    -1.238186    0.698485    -2.817419    7.386945    0.374455    -0.207347    -9.359339    -7.139150    0.085963    0.062640    -0.095276    -3.603641    -1.347170    2.600610    3.010519    8.908167    5.940001    -2.389502    -9.992431    -12.989710    -0.474119    0.151906    0.512690    
